<svg width="667" height="500" viewBox="0 0 667 500" fill="none" xmlns="http://www.w3.org/2000/svg">
<path d="M562.637 77.0834C567.574 77.0834 572.308 79.0443 575.798 82.5348C579.289 86.0253 581.25 90.7595 581.25 95.6959V272.221C581.25 277.157 579.289 281.891 575.798 285.382C572.308 288.872 567.574 290.833 562.637 290.833H333.612C328.676 290.833 323.942 288.872 320.451 285.382C316.961 281.891 315 277.157 315 272.221V95.6959C315 90.7595 316.961 86.0253 320.451 82.5348C323.942 79.0443 328.676 77.0834 333.612 77.0834H562.637ZM562.637 75.4167H333.612C328.236 75.4222 323.081 77.5605 319.279 81.3624C315.477 85.1643 313.339 90.3192 313.333 95.6959V272.221C313.339 277.598 315.477 282.752 319.279 286.554C323.081 290.356 328.236 292.495 333.612 292.5H562.637C568.014 292.495 573.169 290.356 576.971 286.554C580.773 282.752 582.911 277.598 582.917 272.221V95.6959C582.911 90.3192 580.773 85.1643 576.971 81.3624C573.169 77.5605 568.014 75.4222 562.637 75.4167Z" fill="white"/>
<path d="M562.638 77.0833H333.612C323.333 77.0833 315 85.4164 315 95.6958V272.221C315 282.5 323.333 290.833 333.612 290.833H562.638C572.917 290.833 581.25 282.5 581.25 272.221V95.6958C581.25 85.4164 572.917 77.0833 562.638 77.0833Z" fill="#F5EBDD"/>
<path d="M315 117.083H582.083" stroke="white" stroke-width="4" stroke-miterlimit="10"/>
<path d="M334.583 103.75C338.495 103.75 341.667 100.579 341.667 96.6666C341.667 92.7546 338.495 89.5833 334.583 89.5833C330.671 89.5833 327.5 92.7546 327.5 96.6666C327.5 100.579 330.671 103.75 334.583 103.75Z" fill="white"/>
<path d="M356.05 103.75C359.962 103.75 363.133 100.579 363.133 96.6666C363.133 92.7546 359.962 89.5833 356.05 89.5833C352.138 89.5833 348.967 92.7546 348.967 96.6666C348.967 100.579 352.138 103.75 356.05 103.75Z" fill="white"/>
<path d="M377.512 103.75C381.425 103.75 384.596 100.579 384.596 96.6666C384.596 92.7546 381.425 89.5833 377.512 89.5833C373.6 89.5833 370.429 92.7546 370.429 96.6666C370.429 100.579 373.6 103.75 377.512 103.75Z" fill="white"/>
<path d="M328.054 202.917C332.991 202.917 337.725 204.878 341.215 208.368C344.706 211.859 346.667 216.593 346.667 221.529V398.054C346.667 402.991 344.706 407.725 341.215 411.215C337.725 414.706 332.991 416.667 328.054 416.667H99.0292C94.0928 416.667 89.3587 414.706 85.8681 411.215C82.3776 407.725 80.4167 402.991 80.4167 398.054V221.529C80.4167 216.593 82.3776 211.859 85.8681 208.368C89.3587 204.878 94.0928 202.917 99.0292 202.917H328.054ZM328.054 201.25H99.0292C93.6525 201.256 88.4976 203.394 84.6957 207.196C80.8938 210.998 78.7555 216.152 78.75 221.529V398.054C78.7555 403.431 80.8938 408.586 84.6957 412.388C88.4976 416.189 93.6525 418.328 99.0292 418.333H328.054C333.431 418.328 338.586 416.189 342.388 412.388C346.19 408.586 348.328 403.431 348.333 398.054V221.529C348.328 216.152 346.19 210.998 342.388 207.196C338.586 203.394 333.431 201.256 328.054 201.25Z" fill="white"/>
<path d="M328.054 202.917H99.0291C88.7497 202.917 80.4166 211.25 80.4166 221.529V398.054C80.4166 408.333 88.7497 416.667 99.0291 416.667H328.054C338.334 416.667 346.667 408.333 346.667 398.054V221.529C346.667 211.25 338.334 202.917 328.054 202.917Z" fill="#F5EBDD"/>
<path d="M80.4166 242.917H347.5" stroke="white" stroke-width="4" stroke-miterlimit="10"/>
<path d="M100 229.583C103.912 229.583 107.083 226.412 107.083 222.5C107.083 218.588 103.912 215.417 100 215.417C96.0879 215.417 92.9166 218.588 92.9166 222.5C92.9166 226.412 96.0879 229.583 100 229.583Z" fill="white"/>
<path d="M121.467 229.583C125.379 229.583 128.55 226.412 128.55 222.5C128.55 218.588 125.379 215.417 121.467 215.417C117.555 215.417 114.383 218.588 114.383 222.5C114.383 226.412 117.555 229.583 121.467 229.583Z" fill="white"/>
<path d="M142.929 229.583C146.841 229.583 150.012 226.412 150.012 222.5C150.012 218.588 146.841 215.417 142.929 215.417C139.017 215.417 135.846 218.588 135.846 222.5C135.846 226.412 139.017 229.583 142.929 229.583Z" fill="white"/>
<path d="M276.846 215.667C276.846 215.496 276.846 215.25 276.846 214.996L277.046 214.846L276.85 214.804C276.85 211.221 276.546 200.579 273.067 192.471C269.975 185.267 265.708 181.937 262.746 183.208C259.783 184.479 259.254 189.875 262.329 197.067C264.046 201.075 266.75 204.946 269.354 208.137C264.108 203.167 256.946 197.004 250.479 193.612C241.729 189.029 234.925 189.167 233.037 192.758C231.15 196.35 234.913 202.037 243.654 206.625C249.342 209.612 257.108 211.825 263.708 213.329C260.17 213.207 256.63 213.507 253.163 214.221C245.513 215.937 241.463 219.525 242.167 222.667C242.871 225.808 248.067 227.321 255.717 225.604C264.238 223.692 272.946 217.812 275.942 215.65L276.471 215.729C276.688 215.933 276.817 216.046 276.817 216.046C276.817 216.046 276.817 215.95 276.817 215.779H276.942L276.846 215.667Z" fill="#3EC1F3"/>
<path d="M360.971 253.554L360.842 253.429V253.688L360.971 253.554Z" fill="#3EC1F3"/>
<path d="M350.983 263.646L350.879 243.567L340.629 233.421L340.833 273.896L350.983 263.646Z" fill="#3EC1F3"/>
<path d="M280.175 208.392L280.517 275.929L290.767 286.075L290.321 198.142L280.175 208.392Z" fill="#3EC1F3"/>
<path d="M246.579 242.333L270.554 266.067L270.312 218.354L246.579 242.333Z" fill="#3EC1F3"/>
<path d="M330.975 283.854L330.671 223.563L320.417 213.413L320.825 294.108L330.975 283.854Z" fill="#3EC1F3"/>
<path d="M310.458 203.554L300.208 193.408L300.725 295.937L309.962 305.079L310.967 304.067L310.458 203.554Z" fill="#3EC1F3"/>
<path d="M270.312 218.354L270.554 266.067L280.517 275.929L280.175 208.392L270.312 218.354Z" fill="#4756DF"/>
<path d="M297.583 190.808L290.321 198.142L290.767 286.075L300.725 295.938L300.208 193.408L297.583 190.808Z" fill="#4756DF"/>
<path d="M320.825 294.108L320.417 213.413L310.458 203.554L310.967 304.067L320.825 294.108Z" fill="#4756DF"/>
<path d="M340.833 273.896L340.629 233.421L330.671 223.562L330.975 283.854L340.833 273.896Z" fill="#4756DF"/>
<path d="M360.842 253.687V253.429L350.879 243.567L350.983 263.646L360.842 253.687Z" fill="#4756DF"/>
<path d="M313.396 206.675L262.483 258.104" stroke="black" stroke-width="4" stroke-linejoin="round"/>
<path d="M300.221 188.144L243.936 245.001L259.225 260.135L315.509 203.278L300.221 188.144Z" fill="#4756DF"/>
<path d="M285 280C285 280 290.417 262.083 287.083 259.167C283.058 255.646 276.25 267.083 270.763 280.833C264.992 295.279 248.263 336.25 247.429 339.167C247.429 339.167 218.925 323.583 206.179 317.917C194.929 312.917 181.225 311.1 181.225 311.1L179.483 300.638C179.483 300.638 187.621 303.554 194.596 299.475C201.571 295.396 203.317 287.846 200.992 276.221C199.613 269.333 199.663 260.804 198.492 253.2C193.85 253.983 187.05 252.387 187.05 252.387C177.746 262.85 167.883 265.175 167.883 265.175C161.488 258.2 149.858 258.2 148.117 268.092C146.188 279.029 159.742 282.042 159.742 282.042C159.742 282.042 162.5 297.917 156.667 313.75C148.563 335.75 115.892 341.588 102.5 332.083C78.3334 349.167 99.7125 401.071 120 425.417C136.667 445.417 195.833 435 195.833 435C195.833 435 202.5 440 210.417 441.667C224.583 469.583 230.417 461.667 230.417 461.667C230.417 461.667 235.417 467.083 239.167 461.25C246.667 461.667 246.25 457.083 239.583 441.25C247.083 450.417 254.425 450.446 254.583 447.917C255 441.25 232.917 417.917 219.167 412.083C208.838 407.7 203.75 406.25 203.75 406.25L201.667 372.5C201.667 372.5 245.883 396.783 266.667 385.417C293.333 370.833 304.167 299.167 304.167 299.167L285 280Z" fill="#EAA58B"/>
<path d="M156.667 313.75C162.5 297.917 159.717 282.033 159.717 282.033C159.717 282.033 146.162 279.021 148.092 268.083C149.833 258.2 161.462 258.2 167.858 265.167C167.858 265.167 177.737 262.842 187.025 252.379C187.025 252.379 193.825 253.975 198.467 253.192C197.654 247.954 196.262 243.142 193.417 239.587C186.442 230.871 167.258 225.054 152.146 236.1C137.033 247.146 138.192 265.167 138.775 272.142C138.775 272.142 112.637 265.742 98.7333 285.408C81.65 309.575 102.483 332.075 102.483 332.075C115.892 341.587 148.562 335.75 156.667 313.75Z" fill="#30242A"/>
<path d="M202.396 384.321L201.667 372.5H201.704L198.217 314.933C194.369 313.744 190.461 312.761 186.508 311.987L184.583 351.667H152.083L139.738 331.604C135.331 333.778 130.611 335.25 125.75 335.967L144.317 381.983L151.25 399.167C151.25 399.167 167.083 400 181.25 402.083C195.417 404.167 203.75 406.25 203.75 406.25L202.396 384.321Z" fill="#FF7235"/>
<path d="M285.621 281.033C285.279 282.121 284.929 283.179 284.583 284.167C284.583 284.167 295.208 296.458 288.542 312.292" stroke="#BB7259" stroke-width="4" stroke-miterlimit="10" stroke-linecap="round"/>
<path d="M246.454 338.796L242.083 350" stroke="#BB7259" stroke-width="4" stroke-miterlimit="10" stroke-linecap="round"/>
<path d="M241.25 443.192C239.487 439.196 237.308 434.521 235.383 431.108" stroke="#BB7259" stroke-width="4" stroke-miterlimit="10" stroke-linecap="round"/>
<path d="M227.562 435.262C232.562 444.067 236.483 453.925 238.942 460.85" stroke="#BB7259" stroke-width="4" stroke-miterlimit="10" stroke-linecap="round"/>
<path d="M219.787 440.196C223.537 447.079 227.187 455.1 229.896 461.404" stroke="#BB7259" stroke-width="4" stroke-miterlimit="10" stroke-linecap="round"/>
<path d="M203.125 389.375L147.708 388.958" stroke="#724342" stroke-width="4" stroke-miterlimit="10" stroke-linecap="round"/>
<path d="M130.908 415.687C128.204 414.77 125.308 414.57 122.503 415.107C119.699 415.645 117.081 416.901 114.908 418.754C116.596 421.142 118.3 423.379 120 425.421C124.608 430.95 132.462 434.171 141.417 435.892C143.687 427.4 139.167 418.529 130.908 415.687Z" fill="#CA7358"/>
<path d="M266.667 385.417C270.287 383.437 273.612 380.417 276.667 376.642C274.69 373.669 271.789 371.43 268.412 370.271C259.767 367.3 250.296 372.05 247.258 380.879C246.467 383.181 246.173 385.626 246.396 388.05C253.958 388.942 261.142 388.437 266.667 385.417Z" fill="#CA7358"/>
<path d="M125.746 335.967C116.771 337.304 108.004 335.992 102.5 332.083C84.9375 344.5 91.4292 375.3 104.075 400.554L144.317 381.983L125.746 335.967Z" fill="#FFBE21"/>
<path d="M156.667 313.75C153.658 321.912 147.267 327.85 139.738 331.604L152.083 351.667H184.583L186.508 312.008C183.308 311.379 181.225 311.1 181.225 311.1L180.417 306.25H158.842C158.29 308.797 157.563 311.303 156.667 313.75Z" fill="#FFBE21"/>
<path d="M206.175 317.917C203.58 316.781 200.923 315.792 198.217 314.954L201.704 372.521C207.239 375.451 212.93 378.079 218.75 380.392L235.833 332.917C226.467 327.917 213.629 321.25 206.175 317.917Z" fill="#FFBE21"/>
<path d="M96.6563 353.356C107.816 346.913 112.327 333.831 106.73 324.138C101.134 314.444 87.5498 311.81 76.3896 318.253C65.2295 324.696 60.7192 337.778 66.3157 347.471C71.9122 357.165 85.4961 359.799 96.6563 353.356Z" fill="#30242A"/>
<path d="M92.2916 313.125C92.2916 313.125 95.2083 330.625 109.375 336.042" stroke="black" stroke-width="4" stroke-linecap="round" stroke-linejoin="round"/>
<path d="M407.292 210.208L408.958 222.708" stroke="#F5EBDC" stroke-width="4" stroke-miterlimit="10" stroke-linecap="round"/>
<path d="M545.833 195.417C545.833 195.417 564.583 173.333 543.75 154.583C531.017 143.125 515.721 146.317 515.721 146.317C516.3 139.342 517.463 121.317 502.35 110.275C487.238 99.2332 468.05 105.046 461.075 113.762C454.1 122.479 455.846 138.762 453.521 150.387C451.196 162.012 452.938 169.554 459.913 173.642C466.888 177.729 475.029 174.804 475.029 174.804L473.283 185.267C473.283 185.267 459.583 187.083 448.333 192.083C435.583 197.75 407.083 213.333 407.083 213.333C406.25 210.417 401.667 162.917 399.583 147.5C397.996 135.754 392.5 121.25 388.333 124.167C384.292 126.996 385.833 136.25 385.833 136.25L364.583 158.333C364.583 158.333 354.079 234.054 379.167 254.583C397.5 269.583 445.417 245.417 445.417 245.417L439.167 290.833H496.342C496.342 290.833 485.621 293.683 463.333 303.75C437.5 315.417 422.5 347.917 424.167 350.417C425.833 352.917 430.833 350.833 437.5 342.5C431.667 364.167 437.5 362.5 441.25 362.083C445.063 367.567 450 360.833 450 360.833C450 360.833 456.667 367.083 467.083 337.917C471.815 335.685 476.173 332.734 480 329.167C480 329.167 546.25 325 559.167 301.667C572.083 278.333 563.333 217.5 545.833 195.417Z" fill="#A15842"/>
<path d="M459.229 145.125C460.184 145.125 460.958 144.351 460.958 143.396C460.958 142.441 460.184 141.667 459.229 141.667C458.274 141.667 457.5 142.441 457.5 143.396C457.5 144.351 458.274 145.125 459.229 145.125Z" fill="#30242A"/>
<path d="M151.042 398.542L141.458 398.125" stroke="#BB7259" stroke-width="4" stroke-miterlimit="10" stroke-linecap="round"/>
<path d="M179.337 301.612C176.82 300.748 174.377 299.679 172.033 298.417" stroke="#BB7259" stroke-width="4" stroke-miterlimit="10" stroke-linecap="round"/>
<path d="M138.142 272.029C138.458 275.208 138.887 279.167 139.304 282.292" stroke="black" stroke-width="4" stroke-linecap="round" stroke-linejoin="round"/>
<path d="M177.275 388.925C177.275 388.925 167.621 375.263 172.104 373.467C175.725 372.017 176.758 382.646 177.275 388.925Z" stroke="#724342" stroke-width="4" stroke-linecap="round" stroke-linejoin="round"/>
<path d="M177.579 389.167C177.579 389.167 182.325 378.208 185.304 379.962C187.708 381.379 181.367 386.304 177.579 389.167Z" stroke="#724342" stroke-width="4" stroke-linecap="round" stroke-linejoin="round"/>
<path d="M182.175 311.392L182.917 315.833" stroke="#BB7259" stroke-width="4" stroke-miterlimit="10" stroke-linecap="round"/>
<path d="M161.433 272.688L156.246 269.804" stroke="#BB7259" stroke-width="4" stroke-miterlimit="10" stroke-linecap="round"/>
<path d="M186.196 282.437C186.492 287.904 192.108 288.358 193.483 284.521L186.196 282.437Z" stroke="#BB7259" stroke-width="4" stroke-linecap="round" stroke-linejoin="round"/>
<path d="M182.842 272.833C183.797 272.833 184.571 272.059 184.571 271.104C184.571 270.149 183.797 269.375 182.842 269.375C181.887 269.375 181.112 270.149 181.112 271.104C181.112 272.059 181.887 272.833 182.842 272.833Z" fill="#724342"/>
<path d="M195.7 269.708C196.655 269.708 197.429 268.934 197.429 267.979C197.429 267.024 196.655 266.25 195.7 266.25C194.745 266.25 193.971 267.024 193.971 267.979C193.971 268.934 194.745 269.708 195.7 269.708Z" fill="#724342"/>
<path d="M191.275 273.217C191.692 274.321 192.083 275.533 191.958 275.987C191.781 276.533 191.424 277.001 190.946 277.317" stroke="#BB7259" stroke-width="4" stroke-miterlimit="10" stroke-linecap="round"/>
<path d="M175.988 226.967L178.192 229.387L179.65 230.996C180.579 234.246 173.817 239.425 164.417 242.633C155.017 245.842 146.5 245.871 145.25 242.729L145.425 240.562L145.692 237.3C149.221 238.133 155.346 237.462 161.9 235.217C168.454 232.971 173.713 229.8 175.988 226.967Z" fill="#FFB7D5"/>
<path d="M159.358 227.808C164.275 226.142 168.467 223.917 171.217 221.717L175.988 226.967C173.713 229.8 168.446 232.992 161.888 235.229C155.329 237.467 149.208 238.146 145.679 237.312L146.25 230.229C149.771 230.292 154.442 229.483 159.358 227.808Z" fill="#FF7235"/>
<path d="M166.108 216.1L171.217 221.717C168.467 223.917 164.275 226.133 159.358 227.808C154.442 229.483 149.775 230.308 146.25 230.233L146.858 222.662C153.662 221.84 160.219 219.605 166.108 216.1Z" fill="#FFB7D5"/>
<path d="M154.296 212.967C156.52 212.214 158.688 211.305 160.783 210.246L166.108 216.1C160.219 219.605 153.662 221.841 146.858 222.663L147.5 214.779C149.805 214.335 152.076 213.729 154.296 212.967Z" fill="#FF7235"/>
<path d="M147.5 214.779L148.921 197.196L160.788 210.246C158.692 211.305 156.524 212.214 154.3 212.967C152.079 213.729 149.806 214.335 147.5 214.779Z" fill="#FFB7D5"/>
<path d="M147.917 200.679C151.46 200.679 154.333 197.806 154.333 194.263C154.333 190.719 151.46 187.846 147.917 187.846C144.373 187.846 141.5 190.719 141.5 194.263C141.5 197.806 144.373 200.679 147.917 200.679Z" fill="#FF7235"/>
<path d="M158.125 289.167C161.001 289.167 163.333 286.835 163.333 283.958C163.333 281.082 161.001 278.75 158.125 278.75C155.248 278.75 152.917 281.082 152.917 283.958C152.917 286.835 155.248 289.167 158.125 289.167Z" fill="#F4E6D8"/>
<path d="M484.638 311.187L485.708 313.583L492.125 327.962C511.875 325.521 549.738 318.704 559.167 301.667C572.083 278.333 563.333 217.5 545.833 195.417C531.25 211.454 508.7 207.083 499.658 193.75C497.992 194.164 496.295 194.443 494.583 194.583C491.914 194.83 489.225 194.723 486.583 194.267C483.418 193.739 480.422 192.476 477.833 190.579C474.538 188.1 473.333 185.417 473.333 185.417L472.775 185.337C470.217 185.717 458.312 187.646 448.333 192.083C435.583 197.75 407.083 213.333 407.083 213.333C406.708 212.025 405.579 201.721 404.258 189.375L388.075 195.625L386.321 196.304L377.95 199.546L362.729 205.437C363.821 225.054 367.917 245.375 379.167 254.583C397.5 269.583 445.417 245.417 445.417 245.417L439.167 290.833H496.342C496.342 290.833 490.479 292.396 478.425 297.271L481.2 303.483L484.638 311.187Z" fill="#FFB7D5"/>
<path d="M405.833 236.25C400.75 236.25 395.875 238.269 392.28 241.864C388.686 245.458 386.667 250.333 386.667 255.417C386.667 256.413 386.743 257.407 386.896 258.392C397.821 261.308 412.837 257.883 424.929 253.808C424.526 249.021 422.34 244.56 418.803 241.308C415.266 238.056 410.638 236.251 405.833 236.25Z" fill="#FF7235"/>
<path d="M387.083 201.667C387.082 199.856 386.826 198.055 386.321 196.317L377.95 199.558L362.729 205.45C363.008 210.479 363.487 215.554 364.233 220.475C367.01 221.019 369.872 220.941 372.615 220.247C375.358 219.554 377.913 218.262 380.097 216.464C382.282 214.666 384.041 212.407 385.249 209.848C386.457 207.29 387.083 204.496 387.083 201.667Z" fill="#FF7235"/>
<path d="M442.5 215C445.694 214.998 448.836 214.199 451.642 212.674C454.448 211.149 456.829 208.947 458.567 206.268C460.306 203.589 461.348 200.518 461.598 197.335C461.848 194.151 461.299 190.955 460 188.037C456.015 189.09 452.115 190.443 448.333 192.083C442.467 194.692 433.262 199.4 425.033 203.725C426.552 207.085 429.007 209.936 432.105 211.936C435.203 213.936 438.812 215 442.5 215Z" fill="#FF7235"/>
<path d="M489.167 258.75C499.752 258.75 508.333 250.169 508.333 239.583C508.333 228.998 499.752 220.417 489.167 220.417C478.581 220.417 470 228.998 470 239.583C470 250.169 478.581 258.75 489.167 258.75Z" fill="#FF7235"/>
<path d="M451.667 270C448.136 270 444.674 270.979 441.667 272.829L439.167 290.833H470.754C470.804 290.283 470.833 289.729 470.833 289.167C470.833 284.083 468.814 279.208 465.219 275.614C461.625 272.019 456.75 270 451.667 270Z" fill="#FF7235"/>
<path d="M520.45 205.575C520.45 205.937 520.417 206.3 520.417 206.667C520.418 210.918 521.833 215.048 524.439 218.408C527.045 221.767 530.694 224.164 534.812 225.223C538.929 226.281 543.282 225.94 547.185 224.254C551.088 222.568 554.319 219.632 556.371 215.908C553.425 207.646 549.862 200.492 545.833 195.417C538.479 203.504 529.1 206.4 520.45 205.575Z" fill="#FF7235"/>
<path d="M538.333 286.667C538.335 291.521 540.178 296.194 543.491 299.743C546.804 303.291 551.34 305.45 556.183 305.783C557.333 304.531 558.335 303.149 559.167 301.667C563.417 293.992 565.321 282.254 565.338 269.167C562.418 267.858 559.218 267.302 556.028 267.547C552.839 267.793 549.761 268.833 547.077 270.573C544.392 272.313 542.185 274.697 540.658 277.508C539.131 280.319 538.332 283.467 538.333 286.667Z" fill="#FF7235"/>
<path d="M497.917 305.833C492.963 305.828 488.202 307.748 484.637 311.187L485.708 313.583L492.125 327.962C500.494 326.946 508.805 325.508 517.029 323.654C516.689 318.817 514.527 314.289 510.981 310.982C507.434 307.675 502.766 305.835 497.917 305.833Z" fill="#FF7235"/>
<path d="M530.208 278.958C519.008 282.775 503.904 287.417 494.583 290.417" stroke="#F5EBDC" stroke-width="4" stroke-miterlimit="10" stroke-linecap="round"/>
<path d="M518.338 238.458L522.292 281.458" stroke="#F5EBDC" stroke-width="4" stroke-miterlimit="10" stroke-linecap="round"/>
<path d="M436.379 343.592C437.746 339.371 440.658 330.7 443.217 325.154" stroke="#30242A" stroke-width="4" stroke-miterlimit="10" stroke-linecap="round"/>
<path d="M451.354 328.642C445.546 341.142 442.138 355.392 440.875 361.3" stroke="#30242A" stroke-width="4" stroke-miterlimit="10" stroke-linecap="round"/>
<path d="M459.492 332.708C455.742 341.358 452.458 353.167 450.617 360.433" stroke="#30242A" stroke-width="4" stroke-miterlimit="10" stroke-linecap="round"/>
<path d="M446.762 230.604L444.496 245.729" stroke="#F5EBDC" stroke-width="4" stroke-miterlimit="10" stroke-linecap="round"/>
<path d="M543.75 154.583C531.017 143.125 515.721 146.317 515.721 146.317C516.3 139.342 517.463 121.317 502.35 110.275C487.237 99.2332 468.05 105.046 461.075 113.762C458.233 117.317 456.837 122.129 456.025 127.367C460.667 128.15 467.471 126.554 467.471 126.554C476.771 137.017 486.637 139.342 486.637 139.342C493.033 132.367 504.658 132.367 506.404 142.258C508.333 153.196 494.775 156.208 494.775 156.208C494.775 156.208 491.9 171.796 496.65 187.508C497.326 189.731 498.335 191.838 499.642 193.758C508.683 207.092 531.238 211.467 545.817 195.425C546.538 194.537 547.207 193.607 547.821 192.642C552.042 186.121 560.129 169.325 543.75 154.583Z" fill="#30242A"/>
<path d="M474.967 175.542C477.661 174.753 480.258 173.662 482.708 172.292" stroke="#30242A" stroke-width="4" stroke-miterlimit="10" stroke-linecap="round"/>
<path d="M516.367 146.196C516.05 149.375 515.625 153.333 515.208 156.458" stroke="black" stroke-width="4" stroke-miterlimit="10" stroke-linecap="round"/>
<path d="M493.075 146.854L498.262 143.971" stroke="#30242A" stroke-width="4" stroke-miterlimit="10" stroke-linecap="round"/>
<path d="M463.592 160.379C464.546 160.975 468.117 161.437 469.567 158.692" stroke="#30242A" stroke-width="4" stroke-miterlimit="10" stroke-linecap="round"/>
<path d="M472.983 147.417C473.938 147.417 474.712 146.642 474.712 145.687C474.712 144.732 473.938 143.958 472.983 143.958C472.028 143.958 471.254 144.732 471.254 145.687C471.254 146.642 472.028 147.417 472.983 147.417Z" fill="#30242A"/>
<path d="M463.379 149.9C463.112 151.05 462.892 152.304 463.075 152.733C463.324 153.251 463.741 153.668 464.258 153.917" stroke="#30242A" stroke-width="4" stroke-miterlimit="10" stroke-linecap="round"/>
<path d="M462.692 145.012C463.732 140.528 461.303 136.136 457.268 135.2C453.233 134.265 449.119 137.141 448.08 141.625C447.04 146.108 449.469 150.501 453.504 151.436C457.539 152.372 461.653 149.495 462.692 145.012Z" stroke="black" stroke-width="4" stroke-miterlimit="10" stroke-linecap="round"/>
<path d="M481.027 147.927C482.067 143.444 479.638 139.051 475.603 138.116C471.568 137.18 467.454 140.057 466.415 144.54C465.376 149.024 467.804 153.417 471.839 154.352C475.875 155.287 479.988 152.411 481.027 147.927Z" stroke="black" stroke-width="4" stroke-miterlimit="10" stroke-linecap="round"/>
<path d="M463.125 144.375L466.042 144.792" stroke="black" stroke-width="4" stroke-miterlimit="10" stroke-linecap="round"/>
<path d="M380.625 138.542C380.625 138.542 388.542 145.208 389.375 146.875C389.375 146.875 376.458 160.208 386.458 176.458" stroke="#30242A" stroke-width="4" stroke-miterlimit="10" stroke-linecap="round"/>
<path d="M423.052 95.3782C424.01 93.8134 423.517 91.7688 421.952 90.8115C420.387 89.8542 418.343 90.3467 417.386 91.9115L354.271 195.08C353.313 196.645 353.806 198.69 355.371 199.647C356.935 200.604 358.98 200.112 359.937 198.547L423.052 95.3782Z" fill="#30242A"/>
<path d="M428.787 68.5708L435.963 62.8291C436.548 62.3596 437.263 62.0808 438.011 62.0305C438.76 61.9802 439.506 62.1607 440.149 62.5477C440.791 62.9347 441.3 63.5096 441.606 64.1947C441.911 64.8798 442 65.6422 441.858 66.3791L440.137 75.4166C440.002 76.1286 440.08 76.8648 440.363 77.5322C440.645 78.1997 441.119 78.7684 441.725 79.1666L449.4 84.2166C450.027 84.628 450.513 85.222 450.792 85.9183C451.072 86.6147 451.13 87.3799 450.961 88.1107C450.792 88.8415 450.402 89.5028 449.845 90.0053C449.288 90.5078 448.59 90.8273 447.846 90.9207L438.75 92.0832C438.03 92.1743 437.354 92.4766 436.806 92.952C436.258 93.4274 435.863 94.0545 435.671 94.7541L433.242 103.612C433.042 104.335 432.627 104.979 432.051 105.459C431.474 105.938 430.765 106.23 430.018 106.294C429.271 106.359 428.523 106.193 427.873 105.819C427.223 105.446 426.703 104.882 426.383 104.204L422.471 95.8707C422.159 95.2177 421.662 94.6715 421.04 94.3008C420.419 93.9301 419.702 93.7514 418.979 93.7874L409.812 94.2041C409.058 94.2513 408.308 94.0643 407.664 93.6687C407.02 93.2731 406.514 92.6882 406.215 91.994C405.917 91.2999 405.84 90.5303 405.995 89.7908C406.15 89.0512 406.531 88.3777 407.083 87.8624L413.779 81.5707C414.308 81.0739 414.677 80.4316 414.841 79.7249C415.005 79.0182 414.956 78.2787 414.7 77.5999L411.458 69.0041C411.192 68.3013 411.148 67.5338 411.332 66.8053C411.517 66.0768 411.92 65.4223 412.488 64.9303C413.056 64.4382 413.761 64.1323 414.508 64.0539C415.256 63.9754 416.009 64.1282 416.667 64.4916L424.721 68.9208C425.357 69.2709 426.083 69.4245 426.807 69.3622C427.531 69.2999 428.22 69.0245 428.787 68.5708Z" fill="#3EC1F3"/>
<path d="M385.833 136.25C382.917 133.75 377.313 132.129 374.583 133.75C369.975 136.487 371.108 141.804 371.108 141.804C371.108 141.804 363.608 140.637 363.7 148.321C363.7 148.321 357.663 150.962 360.304 157C360.304 157 355.079 158.321 357.563 164.754C359.583 170 364.246 172.746 367.083 174.167C369.583 175.417 373.417 173.612 372.083 168.75C372.083 168.75 375 169.583 376.667 167.917C378.967 165.617 377.917 161.25 377.917 161.25C377.917 161.25 380.833 162.083 382.917 160.417C385.458 158.383 384.167 154.583 384.167 154.583C385.098 154.458 385.978 154.081 386.712 153.494C387.446 152.907 388.006 152.131 388.333 151.25C390 147.083 383.75 142.083 383.75 142.083L385.833 136.25Z" fill="#A15842"/>
<path d="M360 157.237C363.668 161.69 367.71 165.82 372.083 169.583" stroke="#30242A" stroke-width="4" stroke-miterlimit="10" stroke-linecap="round"/>
<path d="M363.75 148.283C368.047 153.537 372.95 158.263 378.358 162.362" stroke="#30242A" stroke-width="4" stroke-miterlimit="10" stroke-linecap="round"/>
<path d="M370.417 142.154C374.354 147.328 379.093 151.839 384.454 155.517" stroke="#30242A" stroke-width="4" stroke-miterlimit="10" stroke-linecap="round"/>
<path d="M380.625 138.542C380.625 138.542 384.529 141.829 387.142 144.375" stroke="#30242A" stroke-width="4" stroke-miterlimit="10" stroke-linecap="round"/>
<path d="M478.521 101.133L476.321 103.554L474.858 105.163C473.929 108.413 480.692 113.592 490.096 116.8C499.5 120.008 508.012 120.038 509.262 116.896L509.087 114.729L508.825 111.467C505.292 112.3 499.171 111.629 492.612 109.383C486.054 107.138 480.8 103.967 478.521 101.133Z" fill="#FFBE21"/>
<path d="M495.154 101.975C490.237 100.308 486.046 98.0832 483.296 95.8832L478.521 101.133C480.8 103.967 486.067 107.158 492.621 109.396C499.175 111.633 505.3 112.312 508.833 111.479L508.262 104.396C504.742 104.458 500.071 103.65 495.154 101.975Z" fill="#FF7235"/>
<path d="M488.404 90.2665L483.296 95.8832C486.046 98.0832 490.237 100.3 495.154 101.975C500.071 103.65 504.737 104.475 508.262 104.4L507.65 96.829C500.847 96.0074 494.292 93.772 488.404 90.2665Z" fill="#FFBE21"/>
<path d="M500.217 87.1332C497.991 86.3809 495.822 85.4717 493.725 84.4124L488.404 90.2458C494.292 93.7512 500.847 95.9866 507.65 96.8083L507.012 88.9249C504.708 88.4868 502.437 87.8881 500.217 87.1332Z" fill="#FF7235"/>
<path d="M507.012 88.9458L505.592 71.3625L493.725 84.4125C495.822 85.4717 497.991 86.381 500.217 87.1333C502.437 87.8952 504.708 88.5009 507.012 88.9458Z" fill="#FFBE21"/>
<path d="M506.592 74.8458C510.135 74.8458 513.008 71.9729 513.008 68.4291C513.008 64.8853 510.135 62.0125 506.592 62.0125C503.048 62.0125 500.175 64.8853 500.175 68.4291C500.175 71.9729 503.048 74.8458 506.592 74.8458Z" fill="#FF7235"/>
</svg>
